<?xml version="1.0" encoding="UTF-8" standalone="no"?>
<svg
   width="32"
   height="32"
   fill="#000000"
   viewBox="0 0 256 256"
   version="1.1"
   id="svg1"
   sodipodi:docname="Bounding Box Icon.svg"
   inkscape:version="1.4 (e7c3feb1, 2024-10-09)"
   xmlns:inkscape="http://www.inkscape.org/namespaces/inkscape"
   xmlns:sodipodi="http://sodipodi.sourceforge.net/DTD/sodipodi-0.dtd"
   xmlns="http://www.w3.org/2000/svg"
   xmlns:svg="http://www.w3.org/2000/svg">
  <defs
     id="defs1" />
  <sodipodi:namedview
     id="namedview1"
     pagecolor="#ffffff"
     bordercolor="#000000"
     borderopacity="0.25"
     inkscape:showpageshadow="2"
     inkscape:pageopacity="0.0"
     inkscape:pagecheckerboard="0"
     inkscape:deskcolor="#d1d1d1"
     inkscape:zoom="19.069603"
     inkscape:cx="-4.8506516"
     inkscape:cy="24.200818"
     inkscape:window-width="1200"
     inkscape:window-height="1186"
     inkscape:window-x="0"
     inkscape:window-y="31"
     inkscape:window-maximized="0"
     inkscape:current-layer="svg1" />
  <rect
     style="font-variation-settings:'opsz' 32, 'wght' 700;opacity:1;fill:#000000;fill-opacity:1;stroke-width:63.2542;stroke-linecap:round;stroke-linejoin:round"
     id="rect3"
     width="256"
     height="256"
     x="0"
     y="0" />
  <path
     d="M 178.1232,107.95071 A 10.024642,10.024642 0 0 0 188.14785,97.926076 V 77.876788 A 10.024642,10.024642 0 0 0 178.1232,67.852148 h -20.04928 a 10.024642,10.024642 0 0 0 -10.02463,10.02464 v 5.01232 h -40.09858 v -5.01232 A 10.024642,10.024642 0 0 0 97.926073,67.852148 H 77.876789 a 10.024642,10.024642 0 0 0 -10.024642,10.02464 v 20.049288 a 10.024642,10.024642 0 0 0 10.024642,10.024634 h 5.012321 v 40.09858 h -5.012321 a 10.024642,10.024642 0 0 0 -10.024642,10.02463 v 20.04928 a 10.024642,10.024642 0 0 0 10.024642,10.02465 H 97.926073 A 10.024642,10.024642 0 0 0 107.95071,178.1232 v -5.01231 h 40.09858 v 5.01231 a 10.024642,10.024642 0 0 0 10.02463,10.02465 H 178.1232 A 10.024642,10.024642 0 0 0 188.14785,178.1232 V 158.07392 A 10.024642,10.024642 0 0 0 178.1232,148.04929 h -5.01231 V 107.95071 Z M 158.07392,77.876788 h 20.04928 v 20.049288 h -20.04928 z m -80.197132,0 h 20.049285 v 9.96199 a 0.31953547,0.31953547 0 0 0 0,0.12531 v 9.961988 H 77.876789 Z M 97.926073,178.1232 H 77.876789 v -20.04928 h 20.049284 v 9.96199 a 0.31953547,0.31953547 0 0 0 0,0.12531 z m 80.197127,0 h -20.04928 v -20.04928 h 20.04928 z m -15.03695,-30.07391 h -5.01233 a 10.024642,10.024642 0 0 0 -10.02463,10.02463 v 5.01233 h -40.09858 v -5.01233 A 10.024642,10.024642 0 0 0 97.926073,148.04929 h -5.012321 v -40.09858 h 5.012321 A 10.024642,10.024642 0 0 0 107.95071,97.926076 v -5.01232 h 40.09858 v 5.01232 a 10.024642,10.024642 0 0 0 10.02463,10.024634 h 5.01233 z"
     id="path1"
     style="fill:#d96c49;fill-opacity:1;stroke-width:0.999999" />
</svg>
