<?xml version="1.0" encoding="UTF-8" standalone="no"?>
<svg
   width="32"
   height="32"
   fill="#000000"
   viewBox="0 0 256 256"
   version="1.1"
   id="svg1"
   sodipodi:docname="Bounding Box Icon.svg"
   inkscape:version="1.4 (e7c3feb1, 2024-10-09)"
   xmlns:inkscape="http://www.inkscape.org/namespaces/inkscape"
   xmlns:sodipodi="http://sodipodi.sourceforge.net/DTD/sodipodi-0.dtd"
   xmlns="http://www.w3.org/2000/svg"
   xmlns:svg="http://www.w3.org/2000/svg">
  <defs
     id="defs1" />
  <sodipodi:namedview
     id="namedview1"
     pagecolor="#ffffff"
     bordercolor="#000000"
     borderopacity="0.25"
     inkscape:showpageshadow="2"
     inkscape:pageopacity="0.0"
     inkscape:pagecheckerboard="0"
     inkscape:deskcolor="#d1d1d1"
     inkscape:zoom="13.173686"
     inkscape:cx="-4.7443061"
     inkscape:cy="18.483817"
     inkscape:window-width="2560"
     inkscape:window-height="1314"
     inkscape:window-x="0"
     inkscape:window-y="31"
     inkscape:window-maximized="1"
     inkscape:current-layer="svg1" />
  <path
     sodipodi:type="star"
     style="font-variation-settings:'opsz' 32, 'wght' 700;opacity:0.482168;fill:#a4adee;stroke-width:42.0842;stroke-linecap:round;stroke-linejoin:round;fill-opacity:1"
     id="path2"
     inkscape:flatsided="true"
     sodipodi:sides="5"
     sodipodi:cx="130.46198"
     sodipodi:cy="119.50715"
     sodipodi:r1="78.344276"
     sodipodi:r2="63.381851"
     sodipodi:arg1="1.5707963"
     sodipodi:arg2="2.1991149"
     inkscape:rounded="0.17"
     inkscape:randomized="0"
     d="m 130.46198,197.85143 c -15.65687,0 -69.6716,-39.244 -74.509839,-54.13457 -4.838238,-14.89056 15.79355,-78.388685 28.460222,-87.591561 12.666672,-9.202876 79.432547,-9.202878 92.099217,-3e-6 12.66668,9.202876 33.29847,72.700994 28.46023,87.591564 -4.83824,14.89057 -58.85297,54.13456 -74.50983,54.13457 z"
     inkscape:transform-center-y="-11.244532"
     transform="matrix(1.5030374,0,0,-1.5030374,-68.089228,309.91783)" />
  <path
     d="m 178.1232,115.74788 a 10.024642,10.024642 0 0 0 10.02465,-10.02464 V 85.673952 A 10.024642,10.024642 0 0 0 178.1232,75.649312 h -20.04928 a 10.024642,10.024642 0 0 0 -10.02463,10.02464 v 5.01232 h -40.09858 v -5.01232 A 10.024642,10.024642 0 0 0 97.92607,75.649312 H 77.876785 a 10.024642,10.024642 0 0 0 -10.024642,10.02464 v 20.049288 a 10.024642,10.024642 0 0 0 10.024642,10.02464 h 5.012321 v 40.09858 h -5.012321 a 10.024642,10.024642 0 0 0 -10.024642,10.02463 v 20.04928 a 10.024642,10.024642 0 0 0 10.024642,10.02465 H 97.92607 a 10.024642,10.024642 0 0 0 10.02464,-10.02465 v -5.01231 h 40.09858 v 5.01231 a 10.024642,10.024642 0 0 0 10.02463,10.02465 h 20.04928 a 10.024642,10.024642 0 0 0 10.02465,-10.02465 V 165.87109 A 10.024642,10.024642 0 0 0 178.1232,155.84646 h -5.01231 V 115.74788 Z M 158.07392,85.673952 h 20.04928 v 20.049288 h -20.04928 z m -80.197135,0 H 97.92607 v 9.96199 a 0.31953547,0.31953547 0 0 0 0,0.12531 v 9.961988 H 77.876785 Z M 97.92607,185.92037 H 77.876785 V 165.87109 H 97.92607 v 9.96199 a 0.31953547,0.31953547 0 0 0 0,0.12531 z m 80.19713,0 h -20.04928 v -20.04928 h 20.04928 z m -15.03695,-30.07391 h -5.01233 a 10.024642,10.024642 0 0 0 -10.02463,10.02463 v 5.01233 h -40.09858 v -5.01233 A 10.024642,10.024642 0 0 0 97.92607,155.84646 h -5.012322 v -40.09858 h 5.012322 a 10.024642,10.024642 0 0 0 10.02464,-10.02464 v -5.01232 h 40.09858 v 5.01232 a 10.024642,10.024642 0 0 0 10.02463,10.02464 h 5.01233 z"
     id="path1"
     style="stroke-width:0.999999;fill:#495dee;fill-opacity:1" />
</svg>
